<?xml version="1.0" encoding="utf-8"?>
<!-- Generator: Adobe Illustrator 18.0.0, SVG Export Plug-In . SVG Version: 6.00 Build 0)  -->
<!DOCTYPE svg PUBLIC "-//W3C//DTD SVG 1.1//EN" "http://www.w3.org/Graphics/SVG/1.1/DTD/svg11.dtd">
<svg version="1.1" id="Layer_1" xmlns="http://www.w3.org/2000/svg" xmlns:xlink="http://www.w3.org/1999/xlink" x="0px" y="0px"
	 viewBox="0 0 792 612" enable-background="new 0 0 792 612" xml:space="preserve">
<path fill="none" stroke="#CCCCCC" stroke-width="0.25" stroke-miterlimit="10" d="M272,18.2c65.7-1.4,144-3.1,197.4-1.6
	c34,0.9,61.4-2.1,72.7,19.7c6.2,11.3,5.5,86.5,5.5,116.1c0,103.7-1.6,239-1.6,342.7c0,42.6,4.7,77.8-26.8,90
	c-17.5,6.8-73.1,5.5-97.1,5.5c-37.7,0-41.3,0-79,0c-19.3,0-74.2-0.5-84.5-9.5c-13.3-11.7-12.6-47.7-12.6-76.6
	c0-73.2,0-146.3,0-219.5c0-59.5,0-119,0-178.5C246,56.1,240.4,25.2,272,18.2z"/>
<g>
	<polygon fill="#FF00FF" points="244.4,274 247.5,278.8 247.5,186.4 244.4,191.1 	"/>
	<polygon fill="#FF00FF" points="246.8,124.8 244.4,128.7 244.4,161.9 246.8,165.8 	"/>
	<path fill="#FF00FF" d="M362.4,530.6h-14.6v11.1h14.6c3.1,0,5.6-2.4,5.6-5.5C368,533,365.5,530.6,362.4,530.6z M362.4,539.4H350
		v-6.6h12.4c1.9,0,3.4,1.5,3.4,3.3S364.3,539.4,362.4,539.4z"/>
	<path fill="#FF00FF" d="M390.4,530.6h-13.5c-3.1,0-5.6,2.4-5.6,5.5v5.5h2.2v-5.5c0-1.8,1.5-3.3,3.4-3.3h13.5c0.6,0,1.1-0.5,1.1-1.1
		C391.5,531.1,390.9,530.6,390.4,530.6z"/>
	<path fill="#FF00FF" d="M408.8,530.6h-9c-3.1,0-5.6,2.4-5.6,5.5c0,3.1,2.5,5.5,5.6,5.5h9c3.1,0,5.6-2.4,5.6-5.5
		C414.4,533,411.9,530.6,408.8,530.6z M408.8,539.4h-9c-1.9,0-3.4-1.5-3.4-3.3c0-1.8,1.5-3.3,3.4-3.3h9c1.9,0,3.4,1.5,3.4,3.3
		S410.7,539.4,408.8,539.4z"/>
	<rect x="417.7" y="530.6" fill="#FF00FF" width="2.2" height="11.1"/>
	<path fill="#FF00FF" d="M438.6,530.6H424v11.1h14.6c3.1,0,5.6-2.4,5.6-5.5C444.2,533,441.6,530.6,438.6,530.6z M438.6,539.4h-12.4
		v-6.6h12.4c1.9,0,3.4,1.5,3.4,3.3S440.4,539.4,438.6,539.4z"/>
	<ellipse fill="#FF00FF" cx="378.7" cy="535.5" rx="1.3" ry="1.3"/>
	<path fill="#FF00FF" d="M386.5,534.3c-0.7,0-1.3,0.6-1.3,1.3c0,0.7,0.6,1.3,1.3,1.3c0.7,0,1.3-0.6,1.3-1.3S387.2,534.3,386.5,534.3
		z"/>
	<path fill="#FF00FF" d="M396.6,50.7c-15.5,0-28,12.6-28,28s12.6,28,28,28s28-12.6,28-28C424.6,63.3,412.1,50.7,396.6,50.7z
		 M396.6,102.5c-13.1,0-23.7-10.6-23.7-23.7s10.6-23.7,23.7-23.7s23.7,10.6,23.7,23.7C420.3,91.8,409.7,102.5,396.6,102.5z"/>
</g>
</svg>
