<?xml version="1.0" encoding="utf-8"?>
<!-- Generator: Adobe Illustrator 18.0.0, SVG Export Plug-In . SVG Version: 6.00 Build 0)  -->
<!DOCTYPE svg PUBLIC "-//W3C//DTD SVG 1.1//EN" "http://www.w3.org/Graphics/SVG/1.1/DTD/svg11.dtd">
<svg version="1.1" id="Layer_1" xmlns="http://www.w3.org/2000/svg" xmlns:xlink="http://www.w3.org/1999/xlink" x="0px" y="0px"
	 viewBox="0 0 460 775" enable-background="new 0 0 460 775" xml:space="preserve">
<path fill="none" stroke="#CCCCCC" stroke-width="0.25" stroke-miterlimit="10" d="M73,23c83.2-1.8,182.4-3.9,250-2
	c43,1.1,77.7-2.6,92,25c7.8,14.3,7,109.5,7,147c0,131.3-2,302.7-2,434c0,53.9,6,98.5-34,114c-22.2,8.6-92.6,7-123,7
	c-47.7,0-52.3,0-100,0c-24.4,0-94-0.6-107-12c-16.9-14.8-16-60.4-16-97c0-92.7,0-185.3,0-278c0-75.3,0-150.7,0-226
	C40,71.1,33,31.9,73,23z"/>
<g>
	<polygon fill="#FFFFFF" points="38,347 42,353 42,236 38,242 	"/>
	<polygon fill="#FFFFFF" points="41,158 38,163 38,205 41,210 	"/>
	<path fill="#FFFFFF" d="M187.5,671.9H169v14h18.5c3.9,0,7.1-3.1,7.1-7C194.6,675,191.4,671.9,187.5,671.9z M187.5,683.1h-15.7v-8.4
		h15.7c2.4,0,4.3,1.9,4.3,4.2C191.8,681.2,189.9,683.1,187.5,683.1z"/>
	<path fill="#FFFFFF" d="M222.9,671.9h-17.1c-3.9,0-7.1,3.1-7.1,7v7h2.8v-7c0-2.3,1.9-4.2,4.3-4.2h17.1c0.8,0,1.4-0.6,1.4-1.4
		C224.3,672.5,223.6,671.9,222.9,671.9z"/>
	<path fill="#FFFFFF" d="M246.2,671.9h-11.4c-3.9,0-7.1,3.1-7.1,7c0,3.9,3.2,7,7.1,7h11.4c3.9,0,7.1-3.1,7.1-7
		C253.3,675,250.1,671.9,246.2,671.9z M246.2,683.1h-11.4c-2.4,0-4.3-1.9-4.3-4.2c0-2.3,1.9-4.2,4.3-4.2h11.4c2.4,0,4.3,1.9,4.3,4.2
		C250.5,681.2,248.6,683.1,246.2,683.1z"/>
	<rect x="257.5" y="671.9" fill="#FFFFFF" width="2.8" height="14"/>
	<path fill="#FFFFFF" d="M283.9,671.9h-18.5v14h18.5c3.9,0,7.1-3.1,7.1-7C291,675,287.8,671.9,283.9,671.9z M283.9,683.1h-15.7v-8.4
		h15.7c2.4,0,4.3,1.9,4.3,4.2C288.2,681.2,286.2,683.1,283.9,683.1z"/>
	<ellipse fill="#FFFFFF" cx="208.1" cy="678.1" rx="1.6" ry="1.6"/>
	<path fill="#FFFFFF" d="M218,676.6c-0.9,0-1.6,0.7-1.6,1.6c0,0.9,0.7,1.6,1.6,1.6c0.9,0,1.6-0.7,1.6-1.6
		C219.6,677.3,218.9,676.6,218,676.6z"/>
	<path fill="#FFFFFF" d="M230.8,64.2c-19.6,0-35.5,15.9-35.5,35.5c0,19.6,15.9,35.5,35.5,35.5s35.5-15.9,35.5-35.5
		C266.2,80.1,250.4,64.2,230.8,64.2z M230.8,129.8c-16.6,0-30-13.4-30-30c0-16.6,13.4-30,30-30s30,13.4,30,30
		C260.8,116.3,247.3,129.8,230.8,129.8z"/>
</g>
</svg>
