<?xml version="1.0" encoding="utf-8"?>
<!-- Generator: Adobe Illustrator 18.0.0, SVG Export Plug-In . SVG Version: 6.00 Build 0)  -->
<!DOCTYPE svg PUBLIC "-//W3C//DTD SVG 1.1//EN" "http://www.w3.org/Graphics/SVG/1.1/DTD/svg11.dtd">
<svg version="1.1" id="Layer_1" xmlns="http://www.w3.org/2000/svg" xmlns:xlink="http://www.w3.org/1999/xlink" x="0px" y="0px"
	 viewBox="0 0 415.5 792" enable-background="new 0 0 415.5 792" xml:space="preserve">
<g>
	<path fill="none" stroke="#CCCCCC" stroke-width="0.25" stroke-miterlimit="10" d="M36.4,3C127,1,234.8-1.3,308.4,0.9
		c46.7,1.3,84.5-2.8,100.2,27.2c8.4,15.7,7.6,119.1,7.6,160c0,142.9-2.1,329.4-2.1,472.2c0,58.8,6.5,107.2-37,124.1
		c-24.2,9.3-100.8,7.6-133.8,7.6c-51.9,0-56.9,0-108.8,0c-26.7,0-102.2-0.6-116.5-13.1c-18.5-16-17.5-65.7-17.5-105.6
		c0-100.8,0-201.6,0-302.4c0-81.9,0-163.8,0-245.9C0.4,55.4-7.1,12.7,36.4,3z"/>
	<path fill="#006699" d="M346.5,14l1.2-5.4c0,0-63.4-3.2-137.2-3.2S58,8.4,58,8.4l1.2,5.4c0,0,49.2-3.2,151.3-3.2S346.5,14,346.5,14
		z"/>
	<path fill="#006699" d="M406.3,156.5l9.8,4.4v47.9l-7.6-2.1l-1.2,2.1l-3.2-2.1v-47.9L406.3,156.5z"/>
	<path fill="#006699" d="M416.1,245.8l-9.8-2.1l-2.1,1.2v116.5l3.2,4.4h7.6l1.2-6.5L416.1,245.8L416.1,245.8L416.1,245.8z"/>
</g>
</svg>
