<?xml version="1.0" encoding="utf-8"?>
<!-- Generator: Adobe Illustrator 18.0.0, SVG Export Plug-In . SVG Version: 6.00 Build 0)  -->
<!DOCTYPE svg PUBLIC "-//W3C//DTD SVG 1.1//EN" "http://www.w3.org/Graphics/SVG/1.1/DTD/svg11.dtd">
<svg version="1.1" id="Layer_1" xmlns="http://www.w3.org/2000/svg" xmlns:xlink="http://www.w3.org/1999/xlink" x="0px" y="0px"
	 viewBox="0 0 322.9 612" enable-background="new 0 0 322.9 612" xml:space="preserve">
<g>
	<path fill="none" stroke="#CCCCCC" stroke-width="0.25" stroke-miterlimit="10" d="M29.4,2.3c70-1.5,153.3-3.3,210.2-1.7
		c36.2,1,65.4-2.2,77.4,21c6.6,12,5.9,92.1,5.9,123.6c0,110.4-1.7,254.5-1.7,365c0,45.4,5,82.8-28.5,95.8
		c-18.6,7.2-77.8,5.9-103.4,5.9c-40.1,0-44,0-84.1,0c-20.6,0-79-0.5-90-10.1C1,589.4,1.7,551.1,1.7,520.3c0-78,0-155.8,0-233.7
		c0-63.4,0-126.7,0-190.1C1.7,42.7-4.3,9.8,29.4,2.3z"/>
	<g>
		<polygon fill="#C0208F" points="0,274.8 3.3,280 3.3,181.6 0,186.6 		"/>
		<polygon fill="#C0208F" points="2.6,115.9 0,120 0,155.5 2.6,159.6 		"/>
		<path fill="#C0208F" d="M125.7,548.1h-15.5v11.8h15.5c3.3,0,6-2.6,6-5.9C131.6,550.7,129,548.1,125.7,548.1z M125.7,557.5h-13.2
			v-7h13.2c2,0,3.6,1.6,3.6,3.5S127.7,557.5,125.7,557.5z"/>
		<path fill="#C0208F" d="M155.5,548.1h-14.4c-3.3,0-6,2.6-6,5.9v5.9h2.3V554c0-1.9,1.6-3.5,3.6-3.5h14.4c0.6,0,1.2-0.5,1.2-1.2
			S156,548.1,155.5,548.1z"/>
		<path fill="#C0208F" d="M175.1,548.1h-9.6c-3.3,0-6,2.6-6,5.9c0,3.3,2.7,5.9,6,5.9h9.6c3.3,0,6-2.6,6-5.9
			C181,550.7,178.4,548.1,175.1,548.1z M175.1,557.5h-9.6c-2,0-3.6-1.6-3.6-3.5s1.6-3.5,3.6-3.5h9.6c2,0,3.6,1.6,3.6,3.5
			S177.1,557.5,175.1,557.5z"/>
		<rect x="184.5" y="548.1" fill="#C0208F" width="2.3" height="11.8"/>
		<path fill="#C0208F" d="M206.8,548.1h-15.5v11.8h15.5c3.3,0,6-2.6,6-5.9C212.8,550.7,210,548.1,206.8,548.1z M206.8,557.5h-13.2
			v-7h13.2c2,0,3.6,1.6,3.6,3.5S208.7,557.5,206.8,557.5z"/>
		<ellipse fill="#C0208F" cx="143" cy="553.3" rx="1.4" ry="1.4"/>
		<path fill="#C0208F" d="M151.3,552c-0.7,0-1.4,0.6-1.4,1.4c0,0.7,0.6,1.4,1.4,1.4c0.7,0,1.4-0.6,1.4-1.4
			C152.7,552.7,152.1,552,151.3,552z"/>
		<path fill="#C0208F" d="M161.1,35c-16.5,0-29.8,13.4-29.8,29.8s13.4,29.8,29.8,29.8s29.8-13.4,29.8-29.8S177.6,35,161.1,35z
			 M161.1,90.1c-14,0-25.2-11.3-25.2-25.2s11.3-25.2,25.2-25.2s25.2,11.3,25.2,25.2C186.3,78.7,175,90.1,161.1,90.1z"/>
	</g>
</g>
</svg>
