<?xml version="1.0" encoding="utf-8"?>
<!-- Generator: Adobe Illustrator 18.0.0, SVG Export Plug-In . SVG Version: 6.00 Build 0)  -->
<!DOCTYPE svg PUBLIC "-//W3C//DTD SVG 1.1//EN" "http://www.w3.org/Graphics/SVG/1.1/DTD/svg11.dtd">
<svg version="1.1" id="Layer_1" xmlns="http://www.w3.org/2000/svg" xmlns:xlink="http://www.w3.org/1999/xlink" x="0px" y="0px"
	 viewBox="0 0 417.8 792" enable-background="new 0 0 417.8 792" xml:space="preserve">
<g>
	<path fill="none" stroke="#CCCCCC" stroke-width="0.25" stroke-miterlimit="10" d="M38,3c90.6-1.9,198.4-4.3,272-2.2
		C356.8,2.1,394.6-2,410.2,28c8.5,15.5,7.6,119.2,7.6,160c0,142.9-2.2,329.4-2.2,472.2c0,58.8,6.5,107.2-36.9,124
		c-24.1,9.3-100.7,7.6-133.8,7.6c-51.9,0-56.9,0-108.8,0c-26.7,0-102.2-0.6-116.5-13.1c-18.4-16-17.5-65.6-17.5-105.5
		c0-100.9,0-201.6,0-302.4c0-82,0-164,0-246C2.2,55.3-5.6,12.7,38,3z"/>
	<g>
		<polygon fill="#FF3300" points="0,355.5 4.3,362.2 4.3,234.9 0,241.4 		"/>
		<polygon fill="#FF3300" points="3.4,150 0,155.3 0,201.1 3.4,206.4 		"/>
		<path fill="#FF3300" d="M162.7,709.2h-20.1v15.3h20.1c4.3,0,7.8-3.4,7.8-7.6C170.3,712.5,166.9,709.2,162.7,709.2z M162.7,721.3
			h-17.1v-9.1h17.1c2.6,0,4.7,2.1,4.7,4.5S165.3,721.3,162.7,721.3z"/>
		<path fill="#FF3300" d="M201.2,709.2h-18.6c-4.3,0-7.8,3.4-7.8,7.6v7.6h3v-7.6c0-2.5,2.1-4.5,4.7-4.5h18.6c0.8,0,1.6-0.6,1.6-1.6
			C202.7,709.8,201.9,709.2,201.2,709.2z"/>
		<path fill="#FF3300" d="M226.6,709.2h-12.4c-4.3,0-7.8,3.4-7.8,7.6c0,4.3,3.5,7.6,7.8,7.6h12.4c4.3,0,7.8-3.4,7.8-7.6
			C234.2,712.5,230.9,709.2,226.6,709.2z M226.6,721.3h-12.4c-2.6,0-4.7-2.1-4.7-4.5s2.1-4.5,4.7-4.5h12.4c2.6,0,4.7,2.1,4.7,4.5
			S229.2,721.3,226.6,721.3z"/>
		<rect x="238.8" y="709.2" fill="#FF3300" width="3" height="15.3"/>
		<path fill="#FF3300" d="M267.6,709.2h-20.1v15.3h20.1c4.3,0,7.8-3.4,7.8-7.6S271.8,709.2,267.6,709.2z M267.6,721.3h-17.1v-9.1
			h17.1c2.6,0,4.7,2.1,4.7,4.5S270.1,721.3,267.6,721.3z"/>
		<ellipse fill="#FF3300" cx="185.1" cy="715.9" rx="1.8" ry="1.8"/>
		<path fill="#FF3300" d="M195.8,714.2c-0.9,0-1.8,0.8-1.8,1.8c0,0.9,0.8,1.8,1.8,1.8c0.9,0,1.8-0.8,1.8-1.8
			C197.6,715.1,196.8,714.2,195.8,714.2z"/>
	</g>
</g>
<g>
	<defs>
		<path id="SVGID_9_" d="M168.2,85.5c0,22.2,17.9,40.1,40.1,40.1s40.1-17.9,40.1-40.1s-17.8-40.1-40.1-40.1
			C186.1,45.4,168.2,63.3,168.2,85.5z M176,85.6c0-17.8,14.5-32.3,32.3-32.3s32.3,14.5,32.3,32.3s-14.4,32.3-32.3,32.3
			S176,103.2,176,85.6z"/>
	</defs>
	<clipPath id="SVGID_1_">
		<use xlink:href="#SVGID_9_"  overflow="visible"/>
	</clipPath>
	
		<linearGradient id="SVGID_2_" gradientUnits="userSpaceOnUse" x1="201.7985" y1="86.4602" x2="242.9715" y2="86.4602" gradientTransform="matrix(-1.1612 6.104535e-03 5.256823e-03 1 465.4886 -1.8668)">
		<stop  offset="0" style="stop-color:#FF3300;stop-opacity:0"/>
		<stop  offset="0.3003" style="stop-color:#FF3300"/>
		<stop  offset="0.7289" style="stop-color:#FF3300"/>
		<stop  offset="0.9964" style="stop-color:#FF3300;stop-opacity:0"/>
	</linearGradient>
	<polygon clip-path="url(#SVGID_1_)" fill="url(#SVGID_2_)" points="184,127.3 231.8,127 231.4,44.6 183.6,44.9 	"/>
	
		<linearGradient id="SVGID_3_" gradientUnits="userSpaceOnUse" x1="252.1806" y1="-3.3166" x2="293.3537" y2="-3.3166" gradientTransform="matrix(-0.4524 -1.057 -0.9193 0.3935 328.056 375.5632)">
		<stop  offset="0" style="stop-color:#FF3300;stop-opacity:0"/>
		<stop  offset="0.3003" style="stop-color:#FF3300"/>
		<stop  offset="0.7289" style="stop-color:#FF3300"/>
		<stop  offset="0.9964" style="stop-color:#FF3300;stop-opacity:0"/>
	</linearGradient>
	<polygon clip-path="url(#SVGID_1_)" fill="url(#SVGID_3_)" points="160.5,80.4 179.1,123.9 254.9,91.5 236.3,48 	"/>
	
		<linearGradient id="SVGID_4_" gradientUnits="userSpaceOnUse" x1="216.5789" y1="29.6908" x2="257.7519" y2="29.6908" gradientTransform="matrix(-0.9371 -0.6661 -0.5794 0.815 447.1472 219.7369)">
		<stop  offset="0.1755" style="stop-color:#000000;stop-opacity:0"/>
		<stop  offset="0.5" style="stop-color:#000000"/>
		<stop  offset="0.8893" style="stop-color:#000000;stop-opacity:0"/>
	</linearGradient>
	<polygon clip-path="url(#SVGID_1_)" fill="url(#SVGID_4_)" points="164.5,105.8 203.1,133.3 250.9,66.1 212.3,38.6 	"/>
	
		<linearGradient id="SVGID_5_" gradientUnits="userSpaceOnUse" x1="216.5789" y1="29.6908" x2="257.7519" y2="29.6908" gradientTransform="matrix(-1.1175 -0.2702 -0.2095 0.8666 477.9109 128.641)">
		<stop  offset="0.4334" style="stop-color:#FFFFFF;stop-opacity:0"/>
		<stop  offset="0.5" style="stop-color:#FFFFFF"/>
		<stop  offset="0.5946" style="stop-color:#FFFFFF;stop-opacity:0"/>
	</linearGradient>
	<polygon clip-path="url(#SVGID_1_)" fill="url(#SVGID_5_)" points="175,120.5 221,131.6 238.3,60.1 192.3,49 	"/>
	
		<linearGradient id="SVGID_6_" gradientUnits="userSpaceOnUse" x1="216.5789" y1="29.6908" x2="257.7519" y2="29.6908" gradientTransform="matrix(-0.6219 -0.967 -0.7315 0.4704 375.0954 306.1644)">
		<stop  offset="0.4334" style="stop-color:#FFFFFF;stop-opacity:0"/>
		<stop  offset="0.5" style="stop-color:#FFFFFF"/>
		<stop  offset="0.5946" style="stop-color:#FFFFFF;stop-opacity:0"/>
	</linearGradient>
	<polygon clip-path="url(#SVGID_1_)" fill="url(#SVGID_6_)" points="162.9,90.3 188.5,130.1 248.8,91.3 223.2,51.5 	"/>
	
		<linearGradient id="SVGID_7_" gradientUnits="userSpaceOnUse" x1="216.5789" y1="29.6908" x2="257.7519" y2="29.6908" gradientTransform="matrix(0.4862 1.0419 0.9111 -0.4252 68.8373 -145.3096)">
		<stop  offset="0.4334" style="stop-color:#FFFFFF;stop-opacity:0"/>
		<stop  offset="0.5" style="stop-color:#FFFFFF"/>
		<stop  offset="0.5946" style="stop-color:#FFFFFF;stop-opacity:0"/>
	</linearGradient>
	<polygon clip-path="url(#SVGID_1_)" fill="url(#SVGID_7_)" points="258.8,93.1 238.8,50.2 163.6,85.2 183.7,128.1 	"/>
	
		<linearGradient id="SVGID_8_" gradientUnits="userSpaceOnUse" x1="216.5789" y1="29.6908" x2="257.7519" y2="29.6908" gradientTransform="matrix(1.1418 -0.1348 -0.1048 -0.8873 -62.1204 139.4203)">
		<stop  offset="0.4334" style="stop-color:#FFFFFF;stop-opacity:0"/>
		<stop  offset="0.5" style="stop-color:#FFFFFF"/>
		<stop  offset="0.5946" style="stop-color:#FFFFFF;stop-opacity:0"/>
	</linearGradient>
	<polygon clip-path="url(#SVGID_1_)" fill="url(#SVGID_8_)" points="224.7,41.7 177.7,47.3 186.4,120.5 233.4,114.9 	"/>
	
		<linearGradient id="SVGID_10_" gradientUnits="userSpaceOnUse" x1="219.9382" y1="147.2809" x2="261.1113" y2="147.2809" gradientTransform="matrix(-0.8914 0.7262 0.6316 0.7753 329.066 -202.9025)">
		<stop  offset="0.1755" style="stop-color:#000000;stop-opacity:0"/>
		<stop  offset="0.5" style="stop-color:#000000"/>
		<stop  offset="0.8893" style="stop-color:#000000;stop-opacity:0"/>
	</linearGradient>
	<polygon clip-path="url(#SVGID_1_)" fill="url(#SVGID_10_)" points="215.4,132.9 252.1,103 200,39 163.3,68.9 	"/>
	
		<linearGradient id="SVGID_11_" gradientUnits="userSpaceOnUse" x1="282.3201" y1="182.9847" x2="323.4932" y2="182.9847" gradientTransform="matrix(-4.211158e-02 1.149 0.9993 3.662734e-02 37.594 -268.7798)">
		<stop  offset="0.1755" style="stop-color:#000000;stop-opacity:0"/>
		<stop  offset="0.5" style="stop-color:#000000"/>
		<stop  offset="0.8893" style="stop-color:#000000;stop-opacity:0"/>
	</linearGradient>
	<polygon clip-path="url(#SVGID_1_)" fill="url(#SVGID_11_)" points="248,111.1 249.8,63.8 167.4,60.8 165.6,108.1 	"/>
	
		<linearGradient id="SVGID_12_" gradientUnits="userSpaceOnUse" x1="327.7036" y1="-1.457" x2="368.8767" y2="-1.457" gradientTransform="matrix(0.4355 -0.9002 -0.9002 -0.4355 54.6969 398.8367)">
		<stop  offset="0" style="stop-color:#FF3300;stop-opacity:0"/>
		<stop  offset="0.3003" style="stop-color:#FF3300"/>
		<stop  offset="0.7289" style="stop-color:#FF3300"/>
		<stop  offset="0.9964" style="stop-color:#FF3300;stop-opacity:0"/>
	</linearGradient>
	<polygon clip-path="url(#SVGID_1_)" fill="url(#SVGID_12_)" points="179.6,49.5 161.6,86.5 235.8,122.4 253.8,85.4 	"/>
</g>
</svg>
