<?xml version="1.0" encoding="utf-8"?>
<!-- Generator: Adobe Illustrator 18.0.0, SVG Export Plug-In . SVG Version: 6.00 Build 0)  -->
<!DOCTYPE svg PUBLIC "-//W3C//DTD SVG 1.1//EN" "http://www.w3.org/Graphics/SVG/1.1/DTD/svg11.dtd">
<svg version="1.1" id="Layer_1" xmlns="http://www.w3.org/2000/svg" xmlns:xlink="http://www.w3.org/1999/xlink" x="0px" y="0px"
	 viewBox="0 0 416.3 792" enable-background="new 0 0 416.3 792" xml:space="preserve">
<g>
	<g>
		<path fill="none" stroke="#CCCCCC" stroke-width="0.25" stroke-miterlimit="10" d="M36.5,3c90.6-2,198.4-4.3,272-2.1
			c46.7,1.3,84.5-2.8,100.2,27.2c8.4,15.7,7.6,119.1,7.6,160c0,142.9-2.1,329.4-2.1,472.2c0,58.8,6.5,107.2-37,124.1
			c-24.2,9.3-100.8,7.6-133.8,7.6c-51.9,0-56.9,0-108.8,0c-26.7,0-102.2-0.6-116.5-13.1c-18.5-16-17.5-65.7-17.5-105.6
			c0-100.8,0-201.6,0-302.4c0-81.9,0-163.8,0-245.9C0.5,55.4-7,12.7,36.5,3z"/>
	</g>
	<linearGradient id="SVGID_1_" gradientUnits="userSpaceOnUse" x1="201.9326" y1="14.9742" x2="201.9326" y2="5.305">
		<stop  offset="0" style="stop-color:#006699;stop-opacity:0"/>
		<stop  offset="6.945552e-02" style="stop-color:#006699;stop-opacity:0.7176"/>
		<stop  offset="0.7026" style="stop-color:#006699"/>
		<stop  offset="0.9897" style="stop-color:#000000"/>
	</linearGradient>
	<path opacity="0.9" fill="url(#SVGID_1_)" d="M338.1,15l2.2-7.4c0,0-56.4-2.2-130.2-2.2S63.6,7.4,63.6,7.4l6.2,7.4
		c0,0,15.8-0.3,54.3-1.3c0.7,0,1.5-1,2.3-1.1c21-0.5,48.6-0.9,83.7-0.9c28,0,50.3,0.3,67.9,0.6c0.8,0,1.5,1,2.3,1
		C324.9,14.3,338.1,15,338.1,15z"/>
	<path opacity="0.8" fill="#006699" d="M405.8,156.4l9.8,4.4V208l-7.6,1.6l-4.4-3v-47.9L405.8,156.4z"/>
	<path opacity="0.8" fill="#006699" d="M415.7,242.7l-9.8-2.1l-2.1,1.2v119.5l3.2,4.4h7.6l1.2-6.5l-0.1-113.5l0,0V242.7z"/>
	<path opacity="0.6" d="M415.7,242.7l-9.8-2.1l3.8,3.8l0.1,116.1l-2.8,5.2h7.6l1.2-6.5l-0.1-113.5l0,0V242.7z"/>
	<path opacity="0.6" d="M405.8,156.4l9.8,4.4V208l-7.6,1.6h2.8v-47.9L405.8,156.4z"/>
</g>
</svg>
