<?xml version="1.0" encoding="utf-8"?>
<!-- Generator: Adobe Illustrator 18.0.0, SVG Export Plug-In . SVG Version: 6.00 Build 0)  -->
<!DOCTYPE svg PUBLIC "-//W3C//DTD SVG 1.1//EN" "http://www.w3.org/Graphics/SVG/1.1/DTD/svg11.dtd">
<svg version="1.1" id="Layer_1" xmlns="http://www.w3.org/2000/svg" xmlns:xlink="http://www.w3.org/1999/xlink" x="0px" y="0px"
	 viewBox="0 0 321.7 612.1" enable-background="new 0 0 321.7 612.1" xml:space="preserve">
<g>
	<path fill="none" stroke="#CCCCCC" stroke-width="0.25" stroke-miterlimit="10" d="M28.1,2.3c70-1.5,153.3-3.3,210.2-1.6
		c36.1,1,65.3-2.2,77.4,21c6.5,12.1,5.9,92,5.9,123.6c0,110.4-1.6,254.5-1.6,364.9c0,45.4,5,82.8-28.6,95.9
		c-18.7,7.2-77.9,5.9-103.4,5.9c-40.1,0-44,0-84.1,0c-20.6,0-79-0.5-90-10.1c-14.3-12.4-13.5-50.8-13.5-81.6c0-77.9,0-155.8,0-233.7
		c0-63.3,0-126.6,0-190C0.3,42.8-5.5,9.8,28.1,2.3z"/>
	<path fill="#C0208F" d="M267.7,10.8l0.9-4.2c0,0-49-2.5-106-2.5S44.8,6.5,44.8,6.5l0.9,4.2c0,0,38-2.5,116.9-2.5
		S267.7,10.8,267.7,10.8z"/>
	<path fill="#C0208F" d="M313.9,120.9l7.6,3.4v37l-5.9-1.6l-0.9,1.6l-2.5-1.6v-37L313.9,120.9z"/>
	<path fill="#C0208F" d="M321.5,189.9l-7.6-1.6l-1.6,0.9v90l2.5,3.4h5.9l0.9-5L321.5,189.9L321.5,189.9L321.5,189.9z"/>
</g>
</svg>
