<?xml version="1.0" encoding="utf-8"?>
<!-- Generator: Adobe Illustrator 18.0.0, SVG Export Plug-In . SVG Version: 6.00 Build 0)  -->
<!DOCTYPE svg PUBLIC "-//W3C//DTD SVG 1.1//EN" "http://www.w3.org/Graphics/SVG/1.1/DTD/svg11.dtd">
<svg version="1.1" id="Layer_1" xmlns="http://www.w3.org/2000/svg" xmlns:xlink="http://www.w3.org/1999/xlink" x="0px" y="0px"
	 viewBox="0 0 792 612" enable-background="new 0 0 792 612" xml:space="preserve">
<g>
	<path fill="none" stroke="#CCCCCC" stroke-width="0.25" stroke-miterlimit="10" d="M263.4,2.3c70-1.5,153.3-3.3,210.2-1.6
		c36.1,1,65.3-2.2,77.4,21c6.5,12.1,5.9,92,5.9,123.6c0,110.4-1.6,254.5-1.6,364.9c0,45.4,5,82.8-28.6,95.9
		c-18.7,7.2-77.9,5.9-103.4,5.9c-40.1,0-44,0-84.1,0c-20.6,0-79-0.5-90-10.1c-14.3-12.4-13.5-50.8-13.5-81.6c0-77.9,0-155.8,0-233.7
		c0-63.3,0-126.6,0-190C235.6,42.8,229.8,9.8,263.4,2.3z"/>
	<path fill="#FFFF00" d="M503,10.8l0.9-4.2c0,0-49-2.5-106-2.5S280.1,6.5,280.1,6.5l0.9,4.2c0,0,38-2.5,116.9-2.5S503,10.8,503,10.8
		z"/>
	<path fill="#FFFF00" d="M549.2,120.9l7.6,3.4v37l-5.9-1.6l-0.9,1.6l-2.5-1.6v-37L549.2,120.9z"/>
	<path fill="#FFFF00" d="M556.8,189.9l-7.6-1.6l-1.6,0.9v90l2.5,3.4h5.9l0.9-5V189.9L556.8,189.9z"/>
</g>
</svg>
