<?xml version="1.0" encoding="utf-8"?>
<!-- Generator: Adobe Illustrator 18.0.0, SVG Export Plug-In . SVG Version: 6.00 Build 0)  -->
<!DOCTYPE svg PUBLIC "-//W3C//DTD SVG 1.1//EN" "http://www.w3.org/Graphics/SVG/1.1/DTD/svg11.dtd">
<svg version="1.1" id="Layer_1" xmlns="http://www.w3.org/2000/svg" xmlns:xlink="http://www.w3.org/1999/xlink" x="0px" y="0px"
	 viewBox="0 0 322.9 612" enable-background="new 0 0 322.9 612" xml:space="preserve">
<g>
	<path fill="none" stroke="#CCCCCC" stroke-width="0.25" stroke-miterlimit="10" d="M29.4,2.3c70-1.5,153.3-3.3,210.2-1.7
		c36.2,1,65.4-2.2,77.4,21c6.6,12,5.9,92.1,5.9,123.6c0,110.4-1.7,254.5-1.7,364.9c0,45.4,5,82.8-28.5,95.8
		c-18.6,7.2-77.8,5.9-103.4,5.9c-40.1,0-44,0-84.1,0c-20.6,0-79-0.5-90-10.1C1,589.3,1.7,551,1.7,520.2c0-78,0-155.8,0-233.7
		c0-63.4,0-126.7,0-190.1C1.7,42.7-4.3,9.8,29.4,2.3z"/>
	<g>
		<polygon fill="#6693AF" points="0,274.7 3.3,279.9 3.3,181.5 0,186.5 		"/>
		<polygon fill="#6693AF" points="2.6,115.9 0,120 0,155.4 2.6,159.5 		"/>
		<path fill="#6693AF" d="M125.7,548h-15.5v11.8h15.5c3.3,0,6-2.6,6-5.9C131.6,550.6,129,548,125.7,548z M125.7,557.4h-13.2v-7h13.2
			c2,0,3.6,1.6,3.6,3.5S127.7,557.4,125.7,557.4z"/>
		<path fill="#6693AF" d="M155.5,548h-14.4c-3.3,0-6,2.6-6,5.9v5.9h2.3v-5.9c0-1.9,1.6-3.5,3.6-3.5h14.4c0.6,0,1.2-0.5,1.2-1.2
			C156.6,548.5,156,548,155.5,548z"/>
		<path fill="#6693AF" d="M175.1,548h-9.6c-3.3,0-6,2.6-6,5.9c0,3.3,2.7,5.9,6,5.9h9.6c3.3,0,6-2.6,6-5.9
			C181,550.6,178.4,548,175.1,548z M175.1,557.4h-9.6c-2,0-3.6-1.6-3.6-3.5s1.6-3.5,3.6-3.5h9.6c2,0,3.6,1.6,3.6,3.5
			S177.1,557.4,175.1,557.4z"/>
		<rect x="184.5" y="548" fill="#6693AF" width="2.3" height="11.8"/>
		<path fill="#6693AF" d="M206.8,548h-15.5v11.8h15.5c3.3,0,6-2.6,6-5.9C212.8,550.6,210,548,206.8,548z M206.8,557.4h-13.2v-7h13.2
			c2,0,3.6,1.6,3.6,3.5S208.7,557.4,206.8,557.4z"/>
		<ellipse fill="#6693AF" cx="143" cy="553.2" rx="1.4" ry="1.4"/>
		<path fill="#6693AF" d="M151.3,551.9c-0.7,0-1.4,0.6-1.4,1.4c0,0.7,0.6,1.4,1.4,1.4c0.7,0,1.4-0.6,1.4-1.4
			C152.7,552.6,152.1,551.9,151.3,551.9z"/>
		<path fill="#6693AF" d="M162.1,37c-16.5,0-29.8,13.4-29.8,29.8s13.4,29.8,29.8,29.8s29.8-13.4,29.8-29.8S178.6,37,162.1,37z
			 M162.1,92.1c-14,0-25.2-11.3-25.2-25.2s11.3-25.2,25.2-25.2s25.2,11.3,25.2,25.2C187.3,80.7,176,92.1,162.1,92.1z"/>
	</g>
</g>
</svg>
