<?xml version="1.0" encoding="utf-8"?>
<!-- Generator: Adobe Illustrator 18.0.0, SVG Export Plug-In . SVG Version: 6.00 Build 0)  -->
<!DOCTYPE svg PUBLIC "-//W3C//DTD SVG 1.1//EN" "http://www.w3.org/Graphics/SVG/1.1/DTD/svg11.dtd">
<svg version="1.1" id="Layer_1" xmlns="http://www.w3.org/2000/svg" xmlns:xlink="http://www.w3.org/1999/xlink" x="0px" y="0px"
	 viewBox="0 0 612 792" enable-background="new 0 0 612 792" xml:space="preserve">
<path fill-rule="evenodd" clip-rule="evenodd" fill="none" stroke="#CCCCCC" stroke-width="0.25" stroke-miterlimit="10" d="
	M149,31.5c83.2-1.8,182.4-3.9,250-2c43,1.1,77.7-2.6,92,25c7.8,14.3,7,109.5,7,147c0,131.3-2,302.7-2,434c0,53.9,6,98.5-34,114
	c-22.2,8.6-92.6,7-123,7c-47.7,0-52.3,0-100,0c-24.4,0-94-0.6-107-12c-16.9-14.8-16-60.4-16-97c0-92.7,0-185.3,0-278
	c0-75.3,0-150.7,0-226C116,79.6,109,40.4,149,31.5z"/>
<path fill-rule="evenodd" clip-rule="evenodd" fill="none" d="M434,41.5l1-5c0,0-58.3-3-126-3s-140,3-140,3l1,5c0,0,45.2-3,139-3
	S434,41.5,434,41.5z"/>
<path fill-rule="evenodd" clip-rule="evenodd" fill="none" d="M489,172.5l9,4v44l-7-2l-1,2l-3-2v-44L489,172.5z"/>
<path fill-rule="evenodd" clip-rule="evenodd" fill="none" d="M498,254.5l-9-2l-2,1v107l3,4h7l1-6V254.5z"/>
</svg>
