<?xml version="1.0" encoding="utf-8"?>
<!-- Generator: Adobe Illustrator 18.0.0, SVG Export Plug-In . SVG Version: 6.00 Build 0)  -->
<!DOCTYPE svg PUBLIC "-//W3C//DTD SVG 1.1//EN" "http://www.w3.org/Graphics/SVG/1.1/DTD/svg11.dtd">
<svg version="1.1" id="Layer_1" xmlns="http://www.w3.org/2000/svg" xmlns:xlink="http://www.w3.org/1999/xlink" x="0px" y="0px"
	 viewBox="0 0 417.8 792" enable-background="new 0 0 417.8 792" xml:space="preserve">
<g>
	<path fill="none" stroke="#CCCCCC" stroke-width="0.25" stroke-miterlimit="10" d="M38,3c90.6-1.9,198.4-4.3,272-2.2
		C356.8,2.1,394.6-2,410.2,28c8.5,15.5,7.6,119.2,7.6,160c0,142.9-2.2,329.4-2.2,472.2c0,58.8,6.5,107.2-36.9,124
		c-24.1,9.3-100.7,7.6-133.8,7.6c-51.9,0-56.9,0-108.8,0c-26.7,0-102.2-0.6-116.5-13.1c-18.4-16-17.5-65.6-17.5-105.5
		c0-100.9,0-201.6,0-302.4c0-82,0-164,0-246C2.2,55.3-5.6,12.7,38,3z"/>
	<g>
		<polygon fill="#006699" points="0,355.5 4.3,362.2 4.3,234.9 0,241.4 		"/>
		<polygon fill="#006699" points="3.4,150 0,155.3 0,201.1 3.4,206.4 		"/>
		<path fill="#006699" d="M162.7,709.2h-20.1v15.3h20.1c4.3,0,7.8-3.4,7.8-7.6C170.3,712.5,166.9,709.2,162.7,709.2z M162.7,721.3
			h-17.1v-9.1h17.1c2.6,0,4.7,2.1,4.7,4.5S165.3,721.3,162.7,721.3z"/>
		<path fill="#006699" d="M201.2,709.2h-18.6c-4.3,0-7.8,3.4-7.8,7.6v7.6h3v-7.6c0-2.5,2.1-4.5,4.7-4.5h18.6c0.8,0,1.6-0.6,1.6-1.6
			C202.7,709.8,201.9,709.2,201.2,709.2z"/>
		<path fill="#006699" d="M226.6,709.2h-12.4c-4.3,0-7.8,3.4-7.8,7.6c0,4.3,3.5,7.6,7.8,7.6h12.4c4.3,0,7.8-3.4,7.8-7.6
			C234.2,712.5,230.9,709.2,226.6,709.2z M226.6,721.3h-12.4c-2.6,0-4.7-2.1-4.7-4.5s2.1-4.5,4.7-4.5h12.4c2.6,0,4.7,2.1,4.7,4.5
			S229.2,721.3,226.6,721.3z"/>
		<rect x="238.8" y="709.2" fill="#006699" width="3" height="15.3"/>
		<path fill="#006699" d="M267.6,709.2h-20.1v15.3h20.1c4.3,0,7.8-3.4,7.8-7.6S271.8,709.2,267.6,709.2z M267.6,721.3h-17.1v-9.1
			h17.1c2.6,0,4.7,2.1,4.7,4.5S270.1,721.3,267.6,721.3z"/>
		<ellipse fill="#006699" cx="185.1" cy="715.9" rx="1.8" ry="1.8"/>
		<path fill="#006699" d="M195.8,714.2c-0.9,0-1.8,0.8-1.8,1.8c0,0.9,0.8,1.8,1.8,1.8c0.9,0,1.8-0.8,1.8-1.8
			C197.6,715.1,196.8,714.2,195.8,714.2z"/>
	</g>
</g>
<g>
	<defs>
		<path id="SVGID_1_" d="M208.3,45.4c-22.3,0-40.1,17.9-40.1,40.1s17.9,40.1,40.1,40.1s40.1-17.9,40.1-40.1S230.5,45.4,208.3,45.4z
			 M208.3,117.9c-17.9,0-32.3-14.5-32.3-32.3s14.5-32.3,32.3-32.3s32.3,14.5,32.3,32.3C240.6,103.2,226.2,117.9,208.3,117.9z"/>
	</defs>
	<clipPath id="SVGID_2_">
		<use xlink:href="#SVGID_1_"  overflow="visible"/>
	</clipPath>
	
		<linearGradient id="SVGID_3_" gradientUnits="userSpaceOnUse" x1="201.7025" y1="86.4602" x2="243.0676" y2="86.4602" gradientTransform="matrix(1.1612 6.104535e-03 -5.256823e-03 1 -48.8886 -1.8668)">
		<stop  offset="0" style="stop-color:#006699;stop-opacity:0"/>
		<stop  offset="0.3003" style="stop-color:#006699"/>
		<stop  offset="0.7289" style="stop-color:#006699"/>
		<stop  offset="0.9964" style="stop-color:#006699;stop-opacity:0"/>
	</linearGradient>
	<polygon clip-path="url(#SVGID_2_)" fill="url(#SVGID_3_)" points="232.7,127.5 184.7,127.2 185.1,44.4 233.1,44.7 	"/>
	
		<linearGradient id="SVGID_4_" gradientUnits="userSpaceOnUse" x1="252.0846" y1="-3.3166" x2="293.4497" y2="-3.3166" gradientTransform="matrix(0.4524 -1.057 0.9193 0.3935 88.544 375.5632)">
		<stop  offset="0" style="stop-color:#006699;stop-opacity:0"/>
		<stop  offset="0.3003" style="stop-color:#006699"/>
		<stop  offset="0.7289" style="stop-color:#006699"/>
		<stop  offset="0.9964" style="stop-color:#006699;stop-opacity:0"/>
	</linearGradient>
	<polygon clip-path="url(#SVGID_2_)" fill="url(#SVGID_4_)" points="256.3,80.4 237.6,124.1 161.5,91.5 180.2,47.8 	"/>
	
		<linearGradient id="SVGID_5_" gradientUnits="userSpaceOnUse" x1="216.4829" y1="29.6908" x2="257.8479" y2="29.6908" gradientTransform="matrix(0.9371 -0.6661 0.5794 0.815 -30.5472 219.7369)">
		<stop  offset="0.1755" style="stop-color:#000000;stop-opacity:0"/>
		<stop  offset="0.5" style="stop-color:#000000"/>
		<stop  offset="0.8893" style="stop-color:#000000;stop-opacity:0"/>
	</linearGradient>
	<polygon clip-path="url(#SVGID_2_)" fill="url(#SVGID_5_)" points="252.3,105.9 213.5,133.5 165.5,66 204.3,38.4 	"/>
	
		<linearGradient id="SVGID_6_" gradientUnits="userSpaceOnUse" x1="219.8422" y1="147.2809" x2="261.2073" y2="147.2809" gradientTransform="matrix(0.8914 0.7262 -0.6316 0.7753 87.534 -202.9025)">
		<stop  offset="0.1755" style="stop-color:#000000;stop-opacity:0"/>
		<stop  offset="0.5" style="stop-color:#000000"/>
		<stop  offset="0.8893" style="stop-color:#000000;stop-opacity:0"/>
	</linearGradient>
	<polygon clip-path="url(#SVGID_2_)" fill="url(#SVGID_6_)" points="201.2,133.1 164.3,103 216.6,38.8 253.5,68.9 	"/>
	
		<linearGradient id="SVGID_7_" gradientUnits="userSpaceOnUse" x1="282.2241" y1="182.9847" x2="323.5892" y2="182.9847" gradientTransform="matrix(4.211158e-02 1.149 -0.9993 3.662734e-02 379.006 -268.7798)">
		<stop  offset="0.1755" style="stop-color:#000000;stop-opacity:0"/>
		<stop  offset="0.5" style="stop-color:#000000"/>
		<stop  offset="0.8893" style="stop-color:#000000;stop-opacity:0"/>
	</linearGradient>
	<polygon clip-path="url(#SVGID_2_)" fill="url(#SVGID_7_)" points="168.4,111.2 166.6,63.7 249.4,60.7 251.2,108.2 	"/>
	
		<linearGradient id="SVGID_8_" gradientUnits="userSpaceOnUse" x1="327.6076" y1="-1.457" x2="368.9727" y2="-1.457" gradientTransform="matrix(-0.4355 -0.9002 0.9002 -0.4355 361.9031 398.8367)">
		<stop  offset="0" style="stop-color:#006699;stop-opacity:0"/>
		<stop  offset="0.3003" style="stop-color:#006699"/>
		<stop  offset="0.7289" style="stop-color:#006699"/>
		<stop  offset="0.9964" style="stop-color:#006699;stop-opacity:0"/>
	</linearGradient>
	<polygon clip-path="url(#SVGID_2_)" fill="url(#SVGID_8_)" points="237.2,49.3 255.2,86.5 180.6,122.6 162.6,85.4 	"/>
	
		<linearGradient id="SVGID_9_" gradientUnits="userSpaceOnUse" x1="216.5789" y1="29.6908" x2="257.7519" y2="29.6908" gradientTransform="matrix(-1.1175 -0.2702 -0.2095 0.8666 477.9109 128.641)">
		<stop  offset="0.4334" style="stop-color:#FFFFFF;stop-opacity:0"/>
		<stop  offset="0.5" style="stop-color:#FFFFFF"/>
		<stop  offset="0.5946" style="stop-color:#FFFFFF;stop-opacity:0"/>
	</linearGradient>
	<polygon clip-path="url(#SVGID_2_)" fill="url(#SVGID_9_)" points="175,120.5 221,131.6 238.3,60.1 192.3,49 	"/>
	
		<linearGradient id="SVGID_10_" gradientUnits="userSpaceOnUse" x1="216.5789" y1="29.6908" x2="257.7519" y2="29.6908" gradientTransform="matrix(-0.6219 -0.967 -0.7315 0.4704 375.0954 306.1644)">
		<stop  offset="0.4334" style="stop-color:#FFFFFF;stop-opacity:0"/>
		<stop  offset="0.5" style="stop-color:#FFFFFF"/>
		<stop  offset="0.5946" style="stop-color:#FFFFFF;stop-opacity:0"/>
	</linearGradient>
	<polygon clip-path="url(#SVGID_2_)" fill="url(#SVGID_10_)" points="162.9,90.3 188.5,130.1 248.8,91.3 223.2,51.5 	"/>
	
		<linearGradient id="SVGID_11_" gradientUnits="userSpaceOnUse" x1="216.5789" y1="29.6908" x2="257.7519" y2="29.6908" gradientTransform="matrix(0.4862 1.0419 0.9111 -0.4252 68.8373 -145.3096)">
		<stop  offset="0.4334" style="stop-color:#FFFFFF;stop-opacity:0"/>
		<stop  offset="0.5" style="stop-color:#FFFFFF"/>
		<stop  offset="0.5946" style="stop-color:#FFFFFF;stop-opacity:0"/>
	</linearGradient>
	<polygon clip-path="url(#SVGID_2_)" fill="url(#SVGID_11_)" points="258.8,93.1 238.8,50.2 163.6,85.2 183.7,128.1 	"/>
	
		<linearGradient id="SVGID_12_" gradientUnits="userSpaceOnUse" x1="216.5789" y1="29.6908" x2="257.7519" y2="29.6908" gradientTransform="matrix(1.1418 -0.1348 -0.1048 -0.8873 -62.1204 139.4203)">
		<stop  offset="0.4334" style="stop-color:#FFFFFF;stop-opacity:0"/>
		<stop  offset="0.5" style="stop-color:#FFFFFF"/>
		<stop  offset="0.5946" style="stop-color:#FFFFFF;stop-opacity:0"/>
	</linearGradient>
	<polygon clip-path="url(#SVGID_2_)" fill="url(#SVGID_12_)" points="224.7,41.7 177.7,47.3 186.4,120.5 233.4,114.9 	"/>
</g>
</svg>
