<?xml version="1.0" encoding="utf-8"?>
<!-- Generator: Adobe Illustrator 18.0.0, SVG Export Plug-In . SVG Version: 6.00 Build 0)  -->
<!DOCTYPE svg PUBLIC "-//W3C//DTD SVG 1.1//EN" "http://www.w3.org/Graphics/SVG/1.1/DTD/svg11.dtd">
<svg version="1.1" id="Layer_1" xmlns="http://www.w3.org/2000/svg" xmlns:xlink="http://www.w3.org/1999/xlink" x="0px" y="0px"
	 viewBox="0 0 416.2 792" enable-background="new 0 0 416.2 792" xml:space="preserve">
<g>
	<g>
		<path fill="none" stroke="#CCCCCC" stroke-width="0.25" stroke-miterlimit="10" d="M36.5,3c90.6-2,198.4-4.3,272-2.1
			c46.7,1.3,84.5-2.8,100.1,27.2c8.4,15.7,7.6,119,7.6,159.9c0,142.8-2.1,329.3-2.1,472.1c0,58.7,6.5,107.1-37,124.1
			c-24.2,9.3-100.8,7.6-133.8,7.6c-51.9,0-56.9,0-108.8,0c-26.7,0-102.2-0.6-116.5-13.1C-0.5,762.7,0.5,713,0.5,673.1
			c0-100.8,0-201.6,0-302.4c0-81.9,0-163.8,0-245.8C0.5,55.4-7,12.7,36.5,3z"/>
	</g>
	<path fill="#FF3300" d="M338.4,15l2.2-7.4c0,0-56.4-2.2-130.2-2.2S64,7.4,64,7.4l6.2,7.4c0,0,15.8-0.3,54.3-1.3
		c0.7,0,1.5-1,2.3-1.1c21-0.5,48.6-0.9,83.7-0.9c28,0,50.3,0.3,67.9,0.6c0.8,0,1.5,1,2.3,1C325.3,14.3,338.4,15,338.4,15z"/>
	<path fill="#FF3300" d="M406.2,156.4l9.8,4.4V208l-7.6,1.6l-4.4-3v-47.9L406.2,156.4z"/>
	<path fill="#FF3300" d="M416.1,242.7l-9.8-2.1l-2.1,1.2v119.5l3.2,4.4h7.6l1.2-6.5l-0.1-113.5l0,0L416.1,242.7L416.1,242.7z"/>
	<path opacity="0.6" enable-background="new    " d="M416.1,242.7l-9.8-2.1l3.8,3.8l0.1,116.1l-2.8,5.2h7.6l1.2-6.5l-0.1-113.5l0,0
		L416.1,242.7L416.1,242.7z"/>
	<path opacity="0.6" enable-background="new    " d="M406.2,156.4l9.8,4.4V208l-7.6,1.6h2.8v-47.9L406.2,156.4z"/>
</g>
</svg>
