<?xml version="1.0" encoding="utf-8"?>
<!-- Generator: Adobe Illustrator 18.0.0, SVG Export Plug-In . SVG Version: 6.00 Build 0)  -->
<!DOCTYPE svg PUBLIC "-//W3C//DTD SVG 1.1//EN" "http://www.w3.org/Graphics/SVG/1.1/DTD/svg11.dtd">
<svg version="1.1" id="Calque_1" xmlns="http://www.w3.org/2000/svg" xmlns:xlink="http://www.w3.org/1999/xlink" x="0px" y="0px"
	 viewBox="0 0 612 201.8" enable-background="new 0 0 612 201.8" xml:space="preserve">
<g>
	<g>
		<g>
			<path d="M331.6,5.3"/>
		</g>
		<path d="M92.3,0c19.6,0,35.5,15.9,35.5,35.5C127.9,55.1,112,71,92.3,71H0V0H92.3z M113.7,35.5c0-11.8-9.5-21.3-21.3-21.3H14.2
			v42.6h78.1C104.2,56.8,113.7,47.3,113.7,35.5"/>
		<path d="M276.1,7.1c0,3.8-3.3,7.1-7.1,7.1h-85.3c-11.8,0-21.3,9.5-21.3,21.3v35.5h-14.2V35.5c0-19.6,15.9-35.5,35.5-35.5H269
			C272.8,0,276.1,3.3,276.1,7.1"/>
		<path d="M328.6,71.1c-19.6,0-35.5-15.9-35.5-35.5C293.1,15.9,309,0,328.6,0h56.8C405.1,0,421,15.9,421,35.5
			c0,19.6-15.9,35.5-35.5,35.5H328.6z M328.6,14.2c-11.8,0-21.3,9.5-21.3,21.3c0,11.8,9.5,21.3,21.3,21.3h56.8
			c11.8,0,21.3-9.5,21.3-21.3c0-11.8-9.5-21.3-21.3-21.3H328.6z"/>
		<rect x="442.1" y="0" width="14.2" height="71.1"/>
		<path d="M573.7,0c19.6,0,35.5,15.9,35.5,35.5c0,19.6-15.9,35.5-35.5,35.5h-92.4V0H573.7z M595,35.5c0-11.8-9.5-21.3-21.3-21.3
			h-78.1v42.6h78.1C585.4,56.8,595,47.3,595,35.5"/>
		<path d="M203.4,31.9c0,4.5-3.6,8.1-8.1,8.1c-4.5,0-8.1-3.6-8.1-8.1c0-4.5,3.6-8.1,8.1-8.1C199.8,23.8,203.4,27.4,203.4,31.9"/>
		<path d="M252.7,31.9c0,4.5-3.6,8.1-8.1,8.1c-4.4,0-8.1-3.6-8.1-8.1c0-4.5,3.6-8.1,8.1-8.1C249.1,23.8,252.7,27.4,252.7,31.9"/>
		<path d="M489.2,141.5c-13.3,0-24.1-10.8-24.1-24.1c0-13.3,10.8-24.1,24.1-24.1h38.6c13.3,0,24.1,10.8,24.1,24.1
			c0,13.3-10.8,24.1-24.1,24.1H489.2z M489.2,103c-8,0-14.5,6.5-14.5,14.5c0,8,6.5,14.5,14.5,14.5h38.6c8,0,14.5-6.5,14.5-14.5
			c0-8-6.5-14.5-14.5-14.5H489.2z"/>
		<path d="M105.2,103.3h33.4c2.8,0,5-2.2,5-5c0-2.8-2.2-5-5-5H62.3c-2.8,0-5,2.2-5,5c0,2.8,2.2,5,5,5h33.4v38.3h9.5V103.3z"/>
		<g>
			<path d="M165.6,93.5v24c0,8,6.4,14.4,14.4,14.4h38.5c8,0,14.4-6.4,14.4-14.4v-24h9.6v24c0,13.3-10.8,24-24,24H180
				c-13.3,0-24-10.8-24-24v-24H165.6z"/>
		</g>
		<path d="M446.2,117.7c2.3-2.5,3.8-5.9,3.8-9.7c0-8-6.5-14.3-14.4-14.4h-75.1v0v9.4v38.4h75.1c7.9,0,14.4-6.3,14.4-14.2
			C449.9,123.6,448.5,120.2,446.2,117.7z M369.2,103.1h66.3c2.8,0,5,2.2,5,4.9c0,2.7-2.2,4.9-5,4.9h-66.3V103.1z M435.6,132.2H385v0
			h-15.8v-9.7h66.3h0c2.8,0,5,2.2,5,4.9C440.6,129.9,438.4,132.2,435.6,132.2z"/>
		<path d="M341.2,133.4l-8-7.9c5.6-2.8,9.4-8.5,9.4-15.1c0-9.3-7.6-16.9-16.9-16.9h-68v48.1h9.6v-14.2h54.3l13,12.8
			c1.9,1.9,4.9,2,6.8,0.1C343.2,138.3,343.1,135.3,341.2,133.4z M267.2,103h58.4c4,0,7.3,3.3,7.3,7.3c0,4-3.3,7.3-7.3,7.3h-58.4V103
			z"/>
	</g>
	<g>
		<path d="M189.8,193.8h-2.6c0.1-1.4,0.2-3.1,0.2-4.7v-25.5h2.5v12.3l0.1,0.1c1.5-2.5,4.4-3.8,7.2-3.8c6.2,0,8.6,5.6,8.6,11
			c0,5.3-2.4,11.2-8.5,11.2c-3,0-5.6-1.4-7.3-3.9l-0.1,0.2L189.8,193.8z M189.9,182.9c0,4.8,1.7,9.2,7.1,9.2c4.8,0,6-5.2,6-9.1
			c0-4-1.6-8.5-6.4-8.5C191.8,174.5,189.9,178.6,189.9,182.9z"/>
		<path d="M213.1,172.8l7.1,17.6l7-17.6h2.7l-11.6,29h-2.8l3.2-8l-8.7-21H213.1z"/>
		<path d="M253.2,175.9L253.2,175.9c1.5-2.5,3.9-3.7,6.6-3.7c3.3,0,5.9,1.8,6.8,4.6c1.5-2.5,4-4.6,7.2-4.6c6.9,0,7.4,6.1,7.4,8.5
			v13.1h-2.5v-13.5c0-3.6-2.1-5.8-5.5-5.8c-4.1,0-6,3.5-6,7.2v12.1h-2.5v-13.5c0-3.6-2.1-5.8-5.5-5.8c-4.1,0-6,3.5-6,7.2v12.1h-2.5
			v-16.3c0-1.6-0.1-3.3-0.2-4.7h2.6L253.2,175.9z"/>
		<path d="M308.2,183.3c0,5.5-3.1,11.1-9.8,11.1c-6.7,0-9.8-5.6-9.8-11.1c0-5.5,3.1-11.1,9.8-11.1
			C305.1,172.2,308.2,177.8,308.2,183.3z M298.4,174.5c-5.1,0-7.1,4.9-7.1,8.8c0,3.9,2,8.8,7.1,8.8c5.1,0,7.1-4.9,7.1-8.8
			C305.5,179.4,303.5,174.5,298.4,174.5z"/>
		<path d="M316.5,175.1h-4.2v-2.3h4.2v-4.5l2.5-1.1v5.6h4.8v2.3h-4.8v14c0,1.9,1,3,2.9,3c0.8,0,1.5,0,2.2-0.3v2.2
			c-0.8,0.2-1.7,0.4-2.6,0.4c-5.3,0-5-3.4-5-6.2V175.1z"/>
		<path d="M347.2,183.3c0,5.5-3.1,11.1-9.8,11.1c-6.7,0-9.8-5.6-9.8-11.1c0-5.5,3.1-11.1,9.8-11.1
			C344.2,172.2,347.2,177.8,347.2,183.3z M337.5,174.5c-5.1,0-7.1,4.9-7.1,8.8c0,3.9,2,8.8,7.1,8.8c5.1,0,7.1-4.9,7.1-8.8
			C344.5,179.4,342.5,174.5,337.5,174.5z"/>
		<path d="M357.1,193.8h-2.5v-16.3c0-1.6-0.1-3.3-0.2-4.7h2.6l0.1,3.1h0.1c0.8-2.1,2.6-3.6,4.7-3.7c0.8,0,1.7,0,2.5,0v2.4
			c-0.5,0-1-0.2-1.5-0.2c-3.7,0-5.7,2.7-5.8,6.7V193.8z"/>
		<path d="M388.4,183.3c0,5.5-3.1,11.1-9.8,11.1c-6.7,0-9.8-5.6-9.8-11.1c0-5.5,3.1-11.1,9.8-11.1
			C385.3,172.2,388.4,177.8,388.4,183.3z M378.6,174.5c-5.1,0-7.1,4.9-7.1,8.8c0,3.9,2,8.8,7.1,8.8c5.1,0,7.1-4.9,7.1-8.8
			C385.7,179.4,383.7,174.5,378.6,174.5z"/>
		<path d="M398.1,193.8h-2.5v-30.2h2.5V193.8z"/>
		<path d="M419.3,179c-0.3-3.4-2-4.5-5-4.5c-2.6,0-4.8,0.8-5.1,3.6h-2.7c0.6-4.3,3.8-5.9,7.9-5.9c4.6,0,7.5,2.1,7.4,6.9v10
			c0,1.6,0.1,3.3,0.2,4.7h-2.6l-0.1-3.1h-0.1l-0.1,0.3c-0.9,1.8-3.7,3.4-6.6,3.4c-3.9,0-7-2.4-7-6.5c0-2.8,1.7-5,4.2-6.1
			c2.8-1.2,6.4-0.8,9.5-1V179z M413,192.1c5.5,0,6.5-4.5,6.3-8.9c-3.6,0.1-11-0.5-11,4.7C408.3,190.8,410.5,192.1,413,192.1z"/>
	</g>
</g>
</svg>
