<?xml version="1.0" encoding="utf-8"?>
<!-- Generator: Adobe Illustrator 18.0.0, SVG Export Plug-In . SVG Version: 6.00 Build 0)  -->
<!DOCTYPE svg PUBLIC "-//W3C//DTD SVG 1.1//EN" "http://www.w3.org/Graphics/SVG/1.1/DTD/svg11.dtd">
<svg version="1.1" id="Calque_1" xmlns="http://www.w3.org/2000/svg" xmlns:xlink="http://www.w3.org/1999/xlink" x="0px" y="0px"
	 viewBox="0 0 145.7 47.3" enable-background="new 0 0 145.7 47.3" xml:space="preserve">
<g>
	<path d="M47.6,45.9c-0.9,0-1.5-0.5-1.9-1.1v0.9H45v-7h0.7v3c0.4-0.6,1-1.1,1.9-1.1c1.2,0,2.4,0.9,2.4,2.6
		C50,44.9,48.8,45.9,47.6,45.9z M47.5,41.4c-0.9,0-1.8,0.8-1.8,1.9c0,1.2,0.9,1.9,1.8,1.9c1,0,1.7-0.7,1.7-1.9
		C49.2,42.1,48.4,41.4,47.5,41.4z"/>
	<path d="M53.5,45.9c-0.4,1-0.9,1.4-1.6,1.4c-0.4,0-0.7-0.1-1.1-0.2l0.2-0.6c0.2,0.1,0.5,0.2,0.8,0.2c0.4,0,0.7-0.2,1-0.9l-2.2-4.9
		h0.8l1.8,4.1l1.6-4.1h0.8L53.5,45.9z"/>
	<path d="M65.3,40.7c1.1,0,1.8,0.8,1.8,2v3.1h-0.7v-2.9c0-1-0.5-1.5-1.3-1.5c-0.7,0-1.4,0.6-1.4,1.5v2.8H63v-2.9
		c0-0.9-0.5-1.5-1.3-1.5s-1.4,0.6-1.4,1.6v2.8h-0.7v-4.9h0.7v0.8c0.3-0.5,0.8-0.9,1.6-0.9c0.8,0,1.3,0.4,1.6,1
		C63.9,41.2,64.4,40.7,65.3,40.7z"/>
	<path d="M71,45.9c-1.5,0-2.6-1.2-2.6-2.6c0-1.4,1.1-2.6,2.6-2.6c1.5,0,2.6,1.2,2.6,2.6C73.5,44.7,72.4,45.9,71,45.9z M71,41.4
		c-1.1,0-1.8,0.9-1.8,1.9s0.8,1.9,1.8,1.9c1.1,0,1.8-0.9,1.8-1.9C72.8,42.3,72,41.4,71,41.4z"/>
	<path d="M75.9,44.4c0,0.6,0.3,0.8,0.8,0.8c0.2,0,0.5,0,0.7-0.2v0.6c-0.3,0.1-0.5,0.2-0.9,0.2c-0.8,0-1.4-0.4-1.4-1.4v-3h-0.7v-0.6
		h0.7v-1.5h0.7v1.5h1.6v0.6h-1.6V44.4z"/>
	<path d="M80.8,45.9c-1.5,0-2.6-1.2-2.6-2.6c0-1.4,1.1-2.6,2.6-2.6c1.5,0,2.6,1.2,2.6,2.6C83.4,44.7,82.3,45.9,80.8,45.9z
		 M80.8,41.4c-1.1,0-1.8,0.9-1.8,1.9s0.8,1.9,1.8,1.9c1.1,0,1.8-0.9,1.8-1.9C82.7,42.3,81.9,41.4,80.8,41.4z"/>
	<path d="M85.5,45.8h-0.7v-4.9h0.7v1.3c0.4-0.8,1.1-1.4,2-1.4v0.8h-0.1c-1.1,0-2,0.8-2,2.3V45.8z"/>
	<path d="M90.7,45.9c-1.5,0-2.6-1.2-2.6-2.6c0-1.4,1.1-2.6,2.6-2.6c1.5,0,2.6,1.2,2.6,2.6C93.3,44.7,92.2,45.9,90.7,45.9z
		 M90.7,41.4c-1.1,0-1.8,0.9-1.8,1.9s0.8,1.9,1.8,1.9c1.1,0,1.8-0.9,1.8-1.9C92.5,42.3,91.7,41.4,90.7,41.4z"/>
	<path d="M94.7,45.8v-7h0.7v7H94.7z"/>
	<path d="M97.4,41.8l-0.2-0.6c0.5-0.2,1.1-0.4,1.8-0.4c1.3,0,2.1,0.7,2.1,2v3h-0.7V45c-0.3,0.4-0.9,0.9-1.8,0.9
		c-0.9,0-1.8-0.5-1.8-1.5c0-1.1,0.9-1.6,2.1-1.6c0.6,0,1.1,0.1,1.5,0.2v-0.2c0-0.9-0.5-1.3-1.5-1.3C98.3,41.4,97.8,41.6,97.4,41.8z
		 M97.5,44.3c0,0.6,0.6,1,1.2,1c0.9,0,1.7-0.6,1.7-1.3v-0.5c-0.4-0.1-0.9-0.2-1.5-0.2C98,43.3,97.5,43.7,97.5,44.3z"/>
</g>
<g>
	<path fill="#1A171B" d="M27.8,8.5c0-2.8-2.3-5.1-5.1-5.1H4.2v10.1h18.6C25.6,13.5,27.8,11.3,27.8,8.5 M22.7,0
		c4.7,0,8.4,3.8,8.4,8.4c0,4.7-3.8,8.4-8.4,8.4h-22V0H22.7z"/>
	<path fill="#1A171B" d="M66.4,1.7c0,0.9-0.8,1.7-1.7,1.7H44.5c-2.8,0-5.1,2.3-5.1,5.1v8.4H36V8.5C36,3.8,39.8,0,44.5,0h20.3
		C65.7,0,66.4,0.8,66.4,1.7"/>
	<path fill="#1A171B" d="M78.9,3.4c-2.8,0-5.1,2.3-5.1,5.1c0,2.8,2.3,5.1,5.1,5.1h13.5c2.8,0,5.1-2.3,5.1-5.1c0-2.8-2.3-5.1-5.1-5.1
		H78.9 M78.9,16.9c-4.7,0-8.4-3.8-8.4-8.4c0-4.7,3.8-8.5,8.4-8.5h13.5c4.7,0,8.5,3.8,8.5,8.5c0,4.7-3.8,8.4-8.5,8.4H78.9z"/>
	<rect x="105.9" y="0" fill="#1A171B" width="3.4" height="16.9"/>
	<path fill="#1A171B" d="M142.3,8.5c0-2.8-2.3-5.1-5.1-5.1h-18.6v10.1h18.6C140,13.5,142.3,11.3,142.3,8.5 M137.2,0
		c4.7,0,8.4,3.8,8.4,8.4c0,4.7-3.8,8.4-8.4,8.4h-22V0H137.2z"/>
	<path fill="#1A171B" d="M49.2,7.6c0,1.1-0.9,1.9-1.9,1.9c-1.1,0-1.9-0.9-1.9-1.9c0-1.1,0.9-1.9,1.9-1.9C48.3,5.7,49.2,6.5,49.2,7.6
		"/>
	<path fill="#1A171B" d="M60.9,7.6c0,1.1-0.9,1.9-1.9,1.9c-1.1,0-1.9-0.9-1.9-1.9c0-1.1,0.9-1.9,1.9-1.9C60,5.7,60.9,6.5,60.9,7.6"
		/>
</g>
<g>
	<path fill="#1A171B" d="M33.2,21.9H14.8c-0.6,0-1.1,0.5-1.1,1.1s0.5,1.1,1.1,1.1h7.9v9.5h2.2v-9.5h8.3c0.6,0,1.1-0.5,1.1-1.1
		S33.8,21.9,33.2,21.9z"/>
	<path fill="#1A171B" d="M126.2,21.9h-9.3c-3.2,0-5.8,2.6-5.8,5.8c0,3.2,2.6,5.8,5.8,5.8h9.3c3.2,0,5.8-2.6,5.8-5.8
		C132,24.5,129.4,21.9,126.2,21.9z M126.2,31.2h-9.3c-1.9,0-3.5-1.6-3.5-3.5c0-1.9,1.6-3.5,3.5-3.5h9.3c1.9,0,3.5,1.6,3.5,3.5
		C129.7,29.6,128.2,31.2,126.2,31.2z"/>
	<path fill="#1A171B" d="M55.6,26.6c0,3.9-1,4.7-2.7,4.7v0H42.3v0c-1.6,0-2.6-0.7-2.7-4h0v-5.4h-2.5c0,0,0,3.5,0,4.7
		c0,1.7,0,6.8,4.7,7.1v0h0.4c0,0,0,0,0,0v0h10.5v0c4.6,0,5.1-4.3,5.1-6.5h0v-5.4h-2.4C55.6,21.9,55.6,25.4,55.6,26.6z"/>
	<path fill="#1A171B" d="M81.8,25.9c0-2.7-2.2-4-4.9-4H61.6v7.9v3.7h2v-3.7h13l3.9,4l1.4-1.4L79,29.5C80.7,29,81.8,27.8,81.8,25.9z
		 M63.6,23.9h13.3c1.6,0,3,0.4,3,2c0,0,0.3,2-3,2H63.6V23.9z"/>
	<path fill="#1A171B" d="M107.5,25.3c0-2.3-2.2-3.3-4.9-3.3H86.2v11.5h16.4c2.7,0,4.9-1,4.9-3.3c0-1.1-0.5-1.9-1.3-2.4
		C106.9,27.2,107.5,26.4,107.5,25.3z M102.5,31.7H88.1v-3h14.4c1.6,0,3,0.3,3,1.5C105.5,30.2,105.8,31.7,102.5,31.7z M102.5,26.8
		H88.1v-3h14.4c1.6,0,3,0.3,3,1.5C105.5,25.3,105.8,26.8,102.5,26.8z"/>
</g>
</svg>
