<?xml version="1.0" encoding="utf-8"?>
<!-- Generator: Adobe Illustrator 18.1.0, SVG Export Plug-In . SVG Version: 6.00 Build 0)  -->
<svg version="1.1" id="Layer_1" xmlns="http://www.w3.org/2000/svg" xmlns:xlink="http://www.w3.org/1999/xlink" x="0px" y="0px"
	 viewBox="0 0 792 612" enable-background="new 0 0 792 612" xml:space="preserve">
<path fill="#ED1C24" d="M407.9,388.3l-6,28.2h50.5l-63.8,82.9l-4.4,25.2h327.6l4.5-28.1H434.6l63.8-83.1l4.4-25.2"/>
<path fill="#ED1C24" d="M358.9,375l4.4-28.2h40.1L399,375H358.9L358.9,375z M609.5,487.6l17.9-99.3h35.5l-2.9,16.2
	c10.4-11.8,22.2-17.9,37-17.9c26.6,0,35.5,14.8,31.2,43l-10.4,59.2h-40.1l8.9-53.4c1.5-10.4,0-19.3-10.4-19.3
	c-11.8,0-16.2,7.5-19.3,20.8l-8.9,50.5L609.5,487.6z M258.1,487.6l17.9-99.3h35.5l-4.4,19.3c8.9-16.2,19.3-23.7,34.1-23.7h4.4
	l-7.5,40.1c-2.9,0-6-1.5-7.5-1.5c-16.2,0-25.2,7.5-29.7,29.7l-6,34.1h-37v1.3H258.1z M559.2,412c-13.3,0-19.3,13.3-22.2,25.2
	c-2.9,19.3,2.9,26.6,11.8,26.6c10.4,0,19.3-8.9,22.2-26.6C574,422.4,569.6,410.5,559.2,412 M495.4,438.8c6-34.1,32.6-53.4,66.7-53.4
	c35.5,0,53.4,20.8,47.4,51.9c-6,37-34.1,53.4-66.7,53.4C511.7,490.6,489.4,472.9,495.4,438.8 M184.1,426.8h35.5
	c1.5-8.9-4.4-17.9-14.8-17.9C194.5,409.1,187,414.9,184.1,426.8 M256.6,446.1H181c-1.5,11.8,6,19.3,16.2,19.3c6,0,11.8-2.9,16.2-8.9
	h38.5c-11.8,25.2-38.5,32.6-60.9,32.6c-32.6,0-53.4-17.9-47.4-51.9c6-32.6,34.1-53.4,66.7-53.4C246.3,385.4,264.1,410.5,256.6,446.1
	 M379.7,487.6h-40.1l17.9-99.3h40.1L379.7,487.6z"/>
<g>
	<path fill="#ED1C24" d="M60.9,487.6l-16.2-99.3h38.5l7.5,62.3l28.2-62.3h38.5l-51.9,99.3"/>
</g>
<linearGradient id="SVGID_1_" gradientUnits="userSpaceOnUse" x1="-6.7205" y1="41.1365" x2="-19.4529" y2="2.3175" gradientTransform="matrix(9.134 0 0 9.134 180 0.2001)">
	<stop  offset="0" style="stop-color:#ED1C24"/>
	<stop  offset="0.9" style="stop-color:#FFFFFF"/>
</linearGradient>
<path fill="url(#SVGID_1_)" d="M4.5,93.9l96.7,264.7l29.8-10.4l-7.5-19.2l-10.4,4.4L23.9,86.5L4.5,93.9z"/>
<linearGradient id="SVGID_2_" gradientUnits="userSpaceOnUse" x1="-9.7615" y1="24.3442" x2="67.2624" y2="24.3442" gradientTransform="matrix(9.134 0 0 9.134 180 0.2001)">
	<stop  offset="0" style="stop-color:#ED1C24"/>
	<stop  offset="0.9221" style="stop-color:#FFFFFF"/>
</linearGradient>
<path fill="url(#SVGID_2_)" d="M113.1,333.4l-2.9-9l-19.4,7.5l10.4,26.7l693.1-252.9l-7.5-19.2L113.1,333.4z"/>
</svg>
