<svg xmlns="http://www.w3.org/2000/svg" viewBox="0 0 612 612"><path fill="#ED1C24" d="M0 0v536.2S0 612 75.8 612H612V0H0z"/><linearGradient id="a" gradientUnits="userSpaceOnUse" x1="5.506" y1="574.155" x2="-2.314" y2="597.997" gradientTransform="matrix(9.134 0 0 -9.134 90 5590.208)"><stop offset=".485" stop-color="#FFF"/><stop offset=".492" stop-color="#FEF7F7"/><stop offset=".545" stop-color="#FAC4C6"/><stop offset=".601" stop-color="#F7979B"/><stop offset=".658" stop-color="#F47176"/><stop offset=".716" stop-color="#F15258"/><stop offset=".778" stop-color="#EF3A41"/><stop offset=".842" stop-color="#EE2931"/><stop offset=".913" stop-color="#ED1F27"/><stop offset="1" stop-color="#ED1C24"/></linearGradient><path fill="url(#a)" d="M70.3 172.6l59.4 162.6 18.3-6.4-4.6-11.8-6.4 2.7-54.8-151.6"/><linearGradient id="b" gradientUnits="userSpaceOnUse" x1="3.647" y1="584.45" x2="50.947" y2="584.45" gradientTransform="matrix(9.134 0 0 -9.134 90 5590.208)"><stop offset=".303" stop-color="#FFF"/><stop offset=".408" stop-color="#FFFBFC"/><stop offset=".502" stop-color="#FEF1F1"/><stop offset=".592" stop-color="#FCDEDF"/><stop offset=".679" stop-color="#FAC4C7"/><stop offset=".764" stop-color="#F8A3A6"/><stop offset=".848" stop-color="#F47A7F"/><stop offset=".93" stop-color="#F14B52"/><stop offset="1" stop-color="#ED1C24"/></linearGradient><path fill="url(#b)" d="M137 319.7l-1.8-5.5-11.9 4.6 6.4 16.4 425.7-155.3-4.6-11.8"/><linearGradient id="c" gradientUnits="userSpaceOnUse" x1="23.447" y1="568.7" x2="45.847" y2="568.7" gradientTransform="matrix(9.134 0 0 -9.134 90 5590.208)"><stop offset=".222" stop-color="#FFF"/><stop offset=".354" stop-color="#FFFCFC"/><stop offset=".46" stop-color="#FEF2F2"/><stop offset=".558" stop-color="#FDE1E2"/><stop offset=".65" stop-color="#FBC9CB"/><stop offset=".739" stop-color="#F8AAAD"/><stop offset=".825" stop-color="#F58488"/><stop offset=".908" stop-color="#F2575D"/><stop offset=".988" stop-color="#EE242C"/><stop offset="1" stop-color="#ED1C24"/></linearGradient><path fill="url(#c)" d="M318.8 353.5l-3.7 17.4h31.1L306.9 422l-2.7 15.5H506l2.8-17.3H335.2l39.3-51.2 2.7-15.5"/><path fill="#FFF" d="M288.6 345.3l2.7-17.4H316l-2.7 17.4h-24.7zM443 414.7l11-61.2h21.9l-1.8 10c6.4-7.3 13.7-11 22.8-11 16.4 0 21.9 9.1 19.2 26.5l-6.4 36.5H485l5.5-32.9c.9-6.4 0-11.9-6.4-11.9-7.3 0-10 4.6-11.9 12.8l-5.5 31.1-23.7.1zm-216.5 0l11-61.2h21.9l-2.7 11.9c5.5-10 11.9-14.6 21-14.6h2.7l-4.6 24.7c-1.8 0-3.7-.9-4.6-.9-10 0-15.5 4.6-18.3 18.3l-3.7 21h-22.8v.8zM412 368.1c-8.2 0-11.9 8.2-13.7 15.5-1.8 11.9 1.8 16.4 7.3 16.4 6.4 0 11.9-5.5 13.7-16.4 1.8-9.1-.9-16.4-7.3-15.5m-39.3 16.5c3.7-21 20.1-32.9 41.1-32.9 21.9 0 32.9 12.8 29.2 32-3.7 22.8-21 32.9-41.1 32.9-19.2-.1-32.9-11-29.2-32m-191.8-7.4h21.9c.9-5.5-2.7-11-9.1-11-6.4.1-11 3.7-12.8 11m44.7 11.9H179c-.9 7.3 3.7 11.9 10 11.9 3.7 0 7.3-1.8 10-5.5h23.7c-7.3 15.5-23.7 20.1-37.5 20.1-20.1 0-32.9-11-29.2-32 3.7-20.1 21-32.9 41.1-32.9 22.1 1 33.1 16.5 28.5 38.4m75.8 25.6h-24.7l11-61.2h24.7l-11 61.2z"/><g><path fill="#FFF" d="M105 414.7l-10-61.2h23.7l4.6 38.4 17.4-38.4h23.7l-32 61.2"/></g></svg>